<svg width="16" height="16" viewBox="0 0 16 16" fill="none" xmlns="http://www.w3.org/2000/svg" id="communities">
<g clip-path="url(#clip0_20127_1504)">
<path d="M8 8.5C8.54167 8.5 9.05208 8.5625 9.53125 8.6875C10.0104 8.79167 10.4375 8.92708 10.8125 9.09375C11.1875 9.26042 11.4792 9.51042 11.6875 9.84375C11.8958 10.1771 12 10.5312 12 10.9062V12H4V10.9375C4 10.5417 4.10417 10.1771 4.3125 9.84375C4.52083 9.51042 4.8125 9.26042 5.1875 9.09375C5.5625 8.92708 5.98958 8.79167 6.46875 8.6875C6.94792 8.5625 7.45833 8.5 8 8.5ZM2.65625 8.65625C3.03125 8.65625 3.34375 8.53125 3.59375 8.28125C3.86458 8.01042 4 7.69792 4 7.34375C4 6.96875 3.86458 6.65625 3.59375 6.40625C3.34375 6.13542 3.03125 6 2.65625 6C2.30208 6 1.98958 6.13542 1.71875 6.40625C1.46875 6.65625 1.34375 6.96875 1.34375 7.34375C1.34375 7.69792 1.46875 8.01042 1.71875 8.28125C1.98958 8.53125 2.30208 8.65625 2.65625 8.65625ZM3.40625 9.40625C3.30208 9.38542 3.1875 9.375 3.0625 9.375C2.9375 9.35417 2.80208 9.34375 2.65625 9.34375C2.32292 9.34375 2 9.375 1.6875 9.4375C1.39583 9.5 1.10417 9.59375 0.8125 9.71875C0.5625 9.82292 0.364583 9.98958 0.21875 10.2188C0.0729167 10.4479 0 10.6979 0 10.9688V12H3V10.9375C3 10.3958 3.13542 9.88542 3.40625 9.40625ZM13.3438 8.65625C13.6979 8.65625 14 8.53125 14.25 8.28125C14.5208 8.01042 14.6562 7.69792 14.6562 7.34375C14.6562 6.96875 14.5208 6.65625 14.25 6.40625C14 6.13542 13.6979 6 13.3438 6C12.9688 6 12.6458 6.13542 12.375 6.40625C12.125 6.65625 12 6.96875 12 7.34375C12 7.69792 12.125 8.01042 12.375 8.28125C12.6458 8.53125 12.9688 8.65625 13.3438 8.65625ZM16 10.9688C16 10.6979 15.9271 10.4479 15.7812 10.2188C15.6354 9.98958 15.4375 9.82292 15.1875 9.71875C14.8958 9.59375 14.5938 9.5 14.2812 9.4375C13.9896 9.375 13.6771 9.34375 13.3438 9.34375C13.1979 9.34375 13.0625 9.35417 12.9375 9.375C12.8125 9.375 12.6979 9.38542 12.5938 9.40625C12.8646 9.88542 13 10.3958 13 10.9375V12H16V10.9688ZM8 4C8.375 4 8.70833 4.09375 9 4.28125C9.3125 4.44792 9.55208 4.6875 9.71875 5C9.90625 5.29167 10 5.625 10 6C10 6.375 9.90625 6.71875 9.71875 7.03125C9.55208 7.32292 9.3125 7.5625 9 7.75C8.70833 7.91667 8.375 8 8 8C7.625 8 7.28125 7.91667 6.96875 7.75C6.67708 7.5625 6.4375 7.32292 6.25 7.03125C6.08333 6.71875 6 6.375 6 6C6 5.625 6.08333 5.29167 6.25 5C6.4375 4.6875 6.67708 4.44792 6.96875 4.28125C7.28125 4.09375 7.625 4 8 4Z" fill="currentColor"/>
</g>
<defs>
<clipPath id="clip0_20127_1504">
<rect width="16" height="16" fill="white"/>
</clipPath>
</defs>
</svg>
