<svg width="17" height="16" viewBox="0 0 17 16" fill="none" xmlns="http://www.w3.org/2000/svg" id="experimental">
<path d="M14.1562 7.34375C14.6146 7.34375 15.0104 7.51042 15.3438 7.84375C15.6771 8.15625 15.8438 8.54167 15.8438 9C15.8438 9.45833 15.6771 9.85417 15.3438 10.1875C15.0104 10.5 14.6146 10.6562 14.1562 10.6562H13.1562V13.3438C13.1562 13.6979 13.0208 14.0104 12.75 14.2812C12.5 14.5312 12.1979 14.6562 11.8438 14.6562H9.3125V13.6562C9.3125 13.1562 9.13542 12.7396 8.78125 12.4062C8.42708 12.0521 8 11.875 7.5 11.875C7 11.875 6.57292 12.0521 6.21875 12.4062C5.86458 12.7396 5.6875 13.1562 5.6875 13.6562V14.6562H3.15625C2.80208 14.6562 2.48958 14.5312 2.21875 14.2812C1.96875 14.0104 1.84375 13.6979 1.84375 13.3438V10.8125H2.84375C3.34375 10.8125 3.76042 10.6354 4.09375 10.2812C4.44792 9.92708 4.625 9.5 4.625 9C4.625 8.5 4.44792 8.07292 4.09375 7.71875C3.76042 7.36458 3.34375 7.1875 2.84375 7.1875H1.84375V4.65625C1.84375 4.30208 1.96875 4 2.21875 3.75C2.48958 3.47917 2.80208 3.34375 3.15625 3.34375H5.84375V2.34375C5.84375 1.88542 6 1.48958 6.3125 1.15625C6.64583 0.822917 7.04167 0.65625 7.5 0.65625C7.95833 0.65625 8.34375 0.822917 8.65625 1.15625C8.98958 1.48958 9.15625 1.88542 9.15625 2.34375V3.34375H11.8438C12.1979 3.34375 12.5 3.47917 12.75 3.75C13.0208 4 13.1562 4.30208 13.1562 4.65625V7.34375H14.1562Z" fill="currentColor"/>
</svg>
